<svg width="111" height="37" viewBox="0 0 111 37" fill="none" xmlns="http://www.w3.org/2000/svg">
<path d="M16.2792 8.275H20.0542L21.9042 13.95L23.7542 8.275H27.5542L24.5292 16.525L26.3292 21.25L30.7792 8.25H35.2542L28.3292 26H24.7792L21.9042 19.05L19.0542 26H15.4792L8.57916 8.25H13.0292L17.5042 21.25L19.2542 16.525L16.2792 8.275ZM40.9391 26.25C39.8225 26.25 38.8225 26.0667 37.9391 25.7C37.0725 25.3333 36.3391 24.8333 35.7391 24.2C35.1391 23.5667 34.6808 22.8417 34.3641 22.025C34.0641 21.2083 33.9141 20.35 33.9141 19.45C33.9141 18.5333 34.0641 17.6667 34.3641 16.85C34.6808 16.0333 35.1391 15.3083 35.7391 14.675C36.3391 14.0417 37.0725 13.5417 37.9391 13.175C38.8225 12.8083 39.8225 12.625 40.9391 12.625C42.0558 12.625 43.0475 12.8083 43.9141 13.175C44.7808 13.5417 45.5141 14.0417 46.1141 14.675C46.7141 15.3083 47.1725 16.0333 47.4891 16.85C47.8058 17.6667 47.9641 18.5333 47.9641 19.45C47.9641 20.35 47.8058 21.2083 47.4891 22.025C47.1725 22.8417 46.7141 23.5667 46.1141 24.2C45.5141 24.8333 44.7808 25.3333 43.9141 25.7C43.0475 26.0667 42.0558 26.25 40.9391 26.25ZM38.0141 19.45C38.0141 20.1333 38.1391 20.7333 38.3891 21.25C38.6558 21.7667 39.0058 22.1667 39.4391 22.45C39.8725 22.7333 40.3725 22.875 40.9391 22.875C41.4891 22.875 41.9808 22.7333 42.4141 22.45C42.8641 22.15 43.2141 21.7417 43.4641 21.225C43.7141 20.7083 43.8391 20.1167 43.8391 19.45C43.8391 18.7667 43.7141 18.1667 43.4641 17.65C43.2141 17.1333 42.8641 16.7333 42.4141 16.45C41.9808 16.1667 41.4891 16.025 40.9391 16.025C40.3725 16.025 39.8725 16.1667 39.4391 16.45C39.0058 16.7333 38.6558 17.1333 38.3891 17.65C38.1391 18.1667 38.0141 18.7667 38.0141 19.45ZM58.2729 16.3C57.3062 16.3 56.4312 16.4583 55.6479 16.775C54.8646 17.075 54.2979 17.525 53.9479 18.125V26H49.9479V12.875H53.6229V15.525C54.0729 14.6417 54.6562 13.95 55.3729 13.45C56.0896 12.95 56.8396 12.6917 57.6229 12.675C57.8062 12.675 57.9396 12.675 58.0229 12.675C58.1229 12.675 58.2062 12.6833 58.2729 12.7V16.3ZM68.7827 26L65.3577 20.75L63.9577 22.175V26H59.9577V7.75H63.9577V18.3L68.4077 12.875H72.6327L67.9077 18.525L73.0327 26H68.7827ZM81.9946 26.15C80.5779 26.15 79.3696 25.9167 78.3696 25.45C77.3696 24.9667 76.5529 24.3167 75.9196 23.5C75.3029 22.6667 74.8446 21.725 74.5446 20.675C74.2613 19.6083 74.1196 18.4917 74.1196 17.325V8.25H78.2196V17.325C78.2196 17.9917 78.2863 18.6417 78.4196 19.275C78.5529 19.8917 78.7696 20.4417 79.0696 20.925C79.3696 21.4083 79.7529 21.7917 80.2196 22.075C80.7029 22.3583 81.2946 22.5 81.9946 22.5C82.7113 22.5 83.3113 22.3583 83.7946 22.075C84.2779 21.775 84.6613 21.3833 84.9446 20.9C85.2279 20.4 85.4363 19.8417 85.5696 19.225C85.7029 18.6083 85.7696 17.975 85.7696 17.325V8.25H89.8696V17.325C89.8696 18.5583 89.7113 19.7083 89.3946 20.775C89.0946 21.8417 88.6279 22.7833 87.9946 23.6C87.3613 24.4 86.5446 25.025 85.5446 25.475C84.5613 25.925 83.3779 26.15 81.9946 26.15ZM97.4534 26.25C96.3367 26.25 95.245 26.0667 94.1784 25.7C93.1117 25.3333 92.2117 24.7917 91.4784 24.075L92.8534 21.55C93.6534 22.1333 94.4284 22.575 95.1784 22.875C95.945 23.175 96.6617 23.325 97.3284 23.325C97.845 23.325 98.245 23.2417 98.5284 23.075C98.8117 22.9083 98.9534 22.65 98.9534 22.3C98.9534 22.05 98.87 21.8583 98.7034 21.725C98.5367 21.575 98.2784 21.4417 97.9284 21.325C97.5951 21.2083 97.1784 21.0833 96.6784 20.95C95.6784 20.6167 94.845 20.2917 94.1784 19.975C93.5117 19.6583 93.0117 19.275 92.6784 18.825C92.345 18.3583 92.1784 17.7583 92.1784 17.025C92.1784 16.1417 92.395 15.375 92.8284 14.725C93.2784 14.0583 93.9117 13.5417 94.7284 13.175C95.545 12.8083 96.52 12.625 97.6534 12.625C98.5534 12.625 99.4284 12.7667 100.278 13.05C101.145 13.3333 101.953 13.8083 102.703 14.475L101.153 16.975C100.403 16.4583 99.7367 16.0833 99.1534 15.85C98.57 15.6167 98.0034 15.5 97.4534 15.5C97.17 15.5 96.9117 15.5333 96.6784 15.6C96.445 15.6667 96.2534 15.7833 96.1034 15.95C95.97 16.1 95.9034 16.3 95.9034 16.55C95.9034 16.8 95.97 17 96.1034 17.15C96.2534 17.3 96.4784 17.4333 96.7784 17.55C97.095 17.65 97.4867 17.775 97.9534 17.925C99.0367 18.2417 99.9367 18.5667 100.653 18.9C101.37 19.2167 101.903 19.6167 102.253 20.1C102.62 20.5667 102.803 21.1917 102.803 21.975C102.803 23.3083 102.32 24.3583 101.353 25.125C100.403 25.875 99.1034 26.25 97.4534 26.25Z" fill="black"/>
<rect x="1" y="1" width="109" height="35" stroke="black" stroke-width="2"/>
</svg>
