<svg width="50" height="50" viewBox="0 0 50 50" fill="none" xmlns="http://www.w3.org/2000/svg">
<path opacity="0.5" d="M25 50C13.215 50 7.3225 50 3.66 46.3375C0 42.68 0 36.785 0 25C0 13.215 0 7.3225 3.66 3.66C7.325 0 13.215 0 25 0C36.785 0 42.6775 0 46.3375 3.66C50 7.325 50 13.215 50 25C50 36.785 50 42.6775 46.3375 46.3375C42.68 50 36.785 50 25 50Z" fill="#DA5F17"/>
<path d="M41.875 15C41.875 15.4973 41.6775 15.9742 41.3258 16.3258C40.9742 16.6775 40.4973 16.875 40 16.875H10C9.50272 16.875 9.02581 16.6775 8.67417 16.3258C8.32254 15.9742 8.125 15.4973 8.125 15C8.125 14.5027 8.32254 14.0258 8.67417 13.6742C9.02581 13.3225 9.50272 13.125 10 13.125H40C40.4973 13.125 40.9742 13.3225 41.3258 13.6742C41.6775 14.0258 41.875 14.5027 41.875 15ZM41.875 25C41.875 25.4973 41.6775 25.9742 41.3258 26.3258C40.9742 26.6775 40.4973 26.875 40 26.875H10C9.50272 26.875 9.02581 26.6775 8.67417 26.3258C8.32254 25.9742 8.125 25.4973 8.125 25C8.125 24.5027 8.32254 24.0258 8.67417 23.6742C9.02581 23.3225 9.50272 23.125 10 23.125H40C40.4973 23.125 40.9742 23.3225 41.3258 23.6742C41.6775 24.0258 41.875 24.5027 41.875 25ZM41.875 35C41.875 35.4973 41.6775 35.9742 41.3258 36.3258C40.9742 36.6775 40.4973 36.875 40 36.875H10C9.50272 36.875 9.02581 36.6775 8.67417 36.3258C8.32254 35.9742 8.125 35.4973 8.125 35C8.125 34.5027 8.32254 34.0258 8.67417 33.6742C9.02581 33.3225 9.50272 33.125 10 33.125H40C40.4973 33.125 40.9742 33.3225 41.3258 33.6742C41.6775 34.0258 41.875 34.5027 41.875 35Z" fill="#DA5F17"/>
</svg>
